<svg width="32" height="32" version="1.1" viewBox="0 0 8.4667 8.4667" xmlns="http://www.w3.org/2000/svg">
  <g>
    <path d="m1.7973 7.5828-1.6807-2.9149c-.15554-.27003-.15554-.6027 0-.87273l1.6807-2.9127c.15626-.27075.44501-.43709.75608-.43709h3.3592c.31179 0 .60126.16634.75608.43709l1.6814 2.9142c.15554.27003.15554.6027 0 .87273l-1.6807 2.9149c-.15626.27075-.44501.43709-.75608.43709h-3.3577c-.31323-.0014391-.60126-.1685-.75824-.43853z" fill="#fff" stroke-width="0"/>
    <path d="m1.9406 7.3848-1.5806-2.7413c-.1469-.25419-.1469-.56742 0-.82089l1.5806-2.7421c.14762-.25491.41908-.41116.71216-.41116h3.1611c.29307 0 .56526.15626.71216.41116l1.582 2.7406c.1469.25419.1469.56742 0 .82089l-1.5813 2.7435c-.14762.25491-.41908.41116-.71216.41116h-3.1604c-.29451 0-.56598-.15698-.7136-.41188z" fill="#08a" stop-color="#000000" stroke-width="0" style="-inkscape-stroke:none;font-variation-settings:normal"/>
    <g transform="matrix(.93729 0 0 .93729 .35163 .037901)">
      <path d="m3.3884 5.4461-1.093-1.0936c-.11036-.11042-.30156-.097402-.42706.028096-.37603.37603-.41384.94929-.084288 1.2788l1.0915 1.0911c.21104.21104.57208.19606.82275-.029033.01342-.00706.025698-.015865.036525-.026692.77585-.82247 1.1706-2.5755 2.6493-3.8413.65568-.46821.27702-.78861-.42741-.80113-.70442-.012514-2.2925 2.3562-2.5683 3.3937z" fill="#fff" stroke-width="0"/>
      <path d="m3.9914 5.9958-.55466-.70704c-.01544.041802-.031968.10152-.048262.15738z" fill="#444" opacity=".3" stroke-width="0"/>
    </g>
  </g>
</svg>
